<?xml version="1.0" encoding="UTF-8"?>
<!-- Generator: Adobe Illustrator 28.0.0, SVG Export Plug-In . SVG Version: 6.00 Build 0)  -->
<svg xmlns="http://www.w3.org/2000/svg" xmlns:xlink="http://www.w3.org/1999/xlink" version="1.1" id="Icons" x="0px" y="0px" viewBox="0 0 60 60" style="enable-background:new 0 0 60 60;" xml:space="preserve">
<style type="text/css">
	.st0{fill:#EC1218;}
</style>
<path class="st0" d="M44.9,42.4L41.5,39v-8.4h2.9v-4.7h-2.9V0H0.1v41.4h25.7v2.3h4.7v-2.3h6.7l4.4,4.4l-2.4,2.5l9.6,1.6l-1.6-10  L44.9,42.4L44.9,42.4z M4.8,36.7v-32h32v32L4.8,36.7L4.8,36.7z"></path>
<rect x="25.8" y="45.4" class="st0" width="4.7" height="5.4"></rect>
<polygon class="st0" points="30.5,52.4 25.8,52.4 25.8,60 33.4,60 33.4,55.3 30.5,55.3 "></polygon>
<rect x="36.9" y="55.3" class="st0" width="11.8" height="4.7"></rect>
<polygon class="st0" points="55.2,55.3 52.3,55.3 52.3,60 59.9,60 59.9,52.4 55.2,52.4 "></polygon>
<rect x="55.2" y="37.1" class="st0" width="4.7" height="11.8"></rect>
<polygon class="st0" points="52.3,25.9 52.3,30.6 55.2,30.6 55.2,33.5 59.9,33.5 59.9,25.9 "></polygon>
<path class="st0" d="M25.5,19.7c-0.9-0.5-2-0.9-3.4-1.3V15c0.8,0.1,1.5,0.2,2.3,0.4s1.5,0.4,2.2,0.7l1.2-3.8  c-0.8-0.3-1.6-0.6-2.6-0.9c-0.9-0.2-2-0.4-3.1-0.5V9.1h-2.6V11c-1.2,0.1-2.3,0.3-3.2,0.7c-0.9,0.4-1.6,1-2.1,1.8  c-0.5,0.8-0.8,1.7-0.8,2.9c0,1.2,0.3,2.2,0.8,3c0.5,0.8,1.3,1.4,2.2,1.9c0.9,0.5,2,0.9,3.1,1.2v3.5c-0.9-0.1-1.8-0.2-2.8-0.5  c-1-0.2-2-0.5-2.9-1v4.3c0.8,0.3,1.6,0.6,2.5,0.8c0.9,0.2,1.9,0.3,3.2,0.4v2.3h2.6V30c2.1-0.2,3.7-0.9,4.7-2c1-1.1,1.5-2.4,1.5-3.9  c0-1.1-0.2-2-0.7-2.7C27.1,20.7,26.4,20.2,25.5,19.7L25.5,19.7z M19.5,17.7c-0.4-0.1-0.7-0.3-0.9-0.4c-0.2-0.1-0.4-0.3-0.5-0.5  c-0.1-0.2-0.1-0.4-0.1-0.6s0.1-0.4,0.2-0.6c0.1-0.2,0.3-0.3,0.5-0.4c0.2-0.1,0.5-0.2,0.9-0.2L19.5,17.7L19.5,17.7z M23.3,25.4  c-0.3,0.2-0.7,0.4-1.2,0.5v-2.8c0.4,0.1,0.7,0.3,1,0.4s0.4,0.3,0.5,0.5c0.1,0.2,0.1,0.4,0.1,0.6C23.7,24.9,23.6,25.2,23.3,25.4  L23.3,25.4z"></path>
</svg>
