<?xml version="1.0" encoding="UTF-8"?>
<!-- Generator: Adobe Illustrator 28.0.0, SVG Export Plug-In . SVG Version: 6.00 Build 0)  -->
<svg xmlns="http://www.w3.org/2000/svg" xmlns:xlink="http://www.w3.org/1999/xlink" version="1.1" id="Icons" x="0px" y="0px" viewBox="0 0 60 60" style="enable-background:new 0 0 60 60;" xml:space="preserve">
<style type="text/css">
	.st0{fill:#EC1218;}
</style>
<path class="st0" d="M47.2,56.2H12.8V3.8h20v11.3h17.9L35.6,0H8.9v60H51V30.4h-3.8L47.2,56.2L47.2,56.2z M36.7,6.6l4.7,4.7h-4.7  C36.7,11.3,36.7,6.6,36.7,6.6z"></path>
<path class="st0" d="M30.3,21.5c0.1,0,0.3-0.1,0.5-0.1c0.3,0,0.6,0,1,0.1c0.3,0.1,0.7,0.2,1,0.4l0.7-1.7c-0.3-0.1-0.7-0.3-1.2-0.4  s-0.9-0.2-1.5-0.2c-0.6,0-1.1,0.1-1.6,0.3s-0.8,0.5-1.1,0.8s-0.4,0.8-0.4,1.3c0,0.4,0,0.7,0.1,0.9s0.2,0.5,0.4,0.7s0.4,0.4,0.6,0.5  s0.5,0.3,0.8,0.4c0.4,0.2,0.6,0.3,0.9,0.4s0.4,0.2,0.5,0.3s0.1,0.2,0.1,0.4c0,0.1,0,0.2-0.1,0.3s-0.2,0.2-0.3,0.2s-0.3,0.1-0.5,0.1  c-0.4,0-0.8-0.1-1.2-0.2s-0.9-0.3-1.4-0.5v2c0.3,0.1,0.5,0.2,0.8,0.3s0.5,0.1,0.8,0.2s0.6,0,1,0c0.8,0,1.4-0.1,1.8-0.4s0.8-0.6,1-1  s0.3-0.8,0.3-1.3s-0.1-0.8-0.2-1.1s-0.4-0.5-0.7-0.8s-0.6-0.4-1-0.6c-0.4-0.2-0.7-0.3-1-0.5s-0.4-0.2-0.5-0.3s-0.1-0.2-0.1-0.3  c0-0.1,0-0.2,0.1-0.3S30.1,21.6,30.3,21.5L30.3,21.5z"></path>
<path class="st0" d="M42.5,26.7c0.3-0.4,0.5-0.8,0.6-1.3s0.2-1,0.2-1.6c0-0.9-0.1-1.6-0.4-2.2s-0.7-1.1-1.3-1.5s-1.3-0.5-2.3-0.5  s-1.7,0.2-2.3,0.5s-1,0.8-1.3,1.5s-0.4,1.4-0.4,2.2c0,0.6,0.1,1.2,0.2,1.8s0.4,1,0.7,1.4s0.7,0.7,1.2,0.9s1.1,0.3,1.8,0.3h0.1  l1.4,1.9h2.8l-2-2.3C41.9,27.4,42.3,27.1,42.5,26.7L42.5,26.7z M40.8,25.1c-0.1,0.4-0.3,0.6-0.5,0.8s-0.6,0.3-1,0.3s-0.7-0.1-1-0.3  s-0.4-0.5-0.5-0.8s-0.2-0.8-0.2-1.3s0.1-0.9,0.2-1.3s0.3-0.6,0.5-0.8s0.6-0.3,1-0.3c0.6,0,1,0.2,1.3,0.6s0.4,1,0.4,1.8  C40.9,24.4,40.9,24.8,40.8,25.1z"></path>
<polygon class="st0" points="47.9,26.2 47.9,19.8 45.6,19.8 45.6,28 51,28 51,26.2 "></polygon>
</svg>
