<?xml version="1.0" encoding="UTF-8"?>
<!-- Generator: Adobe Illustrator 28.0.0, SVG Export Plug-In . SVG Version: 6.00 Build 0)  -->
<svg xmlns="http://www.w3.org/2000/svg" xmlns:xlink="http://www.w3.org/1999/xlink" version="1.1" id="Icons" x="0px" y="0px" viewBox="0 0 60 60" style="enable-background:new 0 0 60 60;" xml:space="preserve">
<style type="text/css">
	.st0{fill:#EC1218;}
</style>
<path class="st0" d="M46.1,28.3l2.6-1.6l2.4-1.5c0.7-0.4,1.4-0.9,2.1-1.3l1.7-1.1l1.1-0.7l0.5-0.3h0l-0.7-1.3l-0.4,0.2L54.3,21  l-1.6,0.7l-2.1,0.9l-2.4,1l-2.7,1.1c-0.9,0.4-1.9,0.8-2.8,1.2l-2.8,1.2l-2.7,1.1l-2.5,1l-2.2,0.9c-0.8,0.4-1.7,0.7-2.5,1  c-0.4,0.2-0.8,0.3-1.1,0.5l0,0c-0.4,0.2-0.8,0.4-1.1,0.8c-0.4,0.3-0.6,0.7-0.8,1.1c0,0,0,0,0,0.1c-0.2,0.6-0.2,1.3-0.1,2  c0.1,0.5,0.4,1,0.8,1.3c0.2,0.2,0.4,0.3,0.5,0.5c1.1,0.8,2.5,0.6,3.6,0c0.8-0.5,1.6-1,2.4-1.6l1.8-1.2l2.2-1.4l2.5-1.6  c0.9-0.5,1.7-1.1,2.6-1.7C44.3,29.4,45.2,28.9,46.1,28.3L46.1,28.3z M27.8,30c-0.5,0.2-0.9,0.4-1.3,0.8c-0.2,0.2-0.4,0.3-0.6,0.5  c-0.5,0.5-1,1.2-1.3,1.9c-0.3,0.7-0.5,1.5-0.5,2.3c0,0.7,0.1,1.3,0.3,2L21,40.9c-1-1.6-1.5-3.4-1.5-5.4c0-5.1,3.6-9.4,8.5-10.4l0,0  c0.7-0.1,1.4-0.2,2-0.2c0,0,0,0,0,0s0,0,0,0c1.9,0,3.9,0.4,5.4,1.6c0,0,0.1,0.1,0.2,0.1c0,0,0.1,0.1,0.1,0.1l-0.8,0.3l-2.7,1.1  C30.8,28.9,29.2,29.4,27.8,30L27.8,30z M20.1,23.3c0.7-0.5,1.4-1,2.1-1.4c2.1-1.2,4.6-2,7.1-2.1c1.9-0.1,3.7,0.2,5.4,0.7  c0,0,0.1,0,0.1,0c1.9,0.6,3.7,1.6,5.2,2.9c0.4,0.3,0.7,0.7,1.1,1.1l0.6-0.2l3.4-1.5c0.2-0.1,0.4-0.2,0.6-0.2c-0.8-1-1.1-1.2-2-2.1  c-1.8-1.6-3.8-2.9-6-3.8c0,0,0,0-0.1,0c-0.1,0-0.2-0.1-0.3-0.1c-0.1,0-0.1,0-0.2-0.1c-0.1,0-0.1,0-0.2-0.1c-0.1,0-0.2-0.1-0.3-0.1  c0,0,0,0-0.1,0c-2-0.7-4.2-1-6.4-1c-5.4,0-10.5,2.1-14.3,5.9c-3.8,3.8-5.9,8.9-5.9,14.3c0,4.5,1.5,8.9,4.2,12.4l3.3-3.3  c-1.8-2.6-2.9-5.7-2.9-9.1c0-2.7,0.6-5.3,2-7.6C17.3,26,18.6,24.5,20.1,23.3L20.1,23.3z M29.9,10.1L29.9,10.1c3,0,5.9,0.6,8.6,1.5  c5,1.9,8.9,4.6,11.9,9l1.5-0.6l3-1.2c-1.2-1.9-2.2-2.9-3.8-4.5c-1.7-1.7-3.5-3.1-5.4-4.3c0,0,0,0,0,0.1c-0.9-0.5-1.8-1-2.7-1.5  c0,0,0,0,0,0c-0.5-0.2-0.9-0.4-1.4-0.6c-1.2-0.5-2.4-0.9-3.6-1.3c-2.7-0.8-5.4-1.2-8.3-1.2c-3.1,0-6.2,0.5-9.2,1.4  c-2.9,0.9-5.6,2.3-8,4.1c-0.6,0.5-1.2,1-1.9,1.5C10,13,9.4,13.6,8.8,14.2C6,17,3.9,20.1,2.4,23.7C0.8,27.4,0,31.3,0,35.4  s0.8,8,2.3,11.7c1.2,2.8,2.7,5.3,4.7,7.6l3.3-3.3c-3.6-4.4-5.7-9.9-5.7-16C4.6,21.4,16,10.1,29.9,10.1L29.9,10.1z M40.6,34.4  c0,0.4,0.1,0.7,0.1,1.1c0,2-0.5,3.8-1.5,5.4l-3.4-3.4L40.6,34.4z M49.2,28.9c0.7,2.1,1.1,4.3,1.1,6.5c0,4.5-1.5,8.9-4.2,12.4  l-3.3-3.3c1.8-2.6,2.9-5.7,2.9-9.1c0-1.3-0.2-2.7-0.5-3.9L49.2,28.9L49.2,28.9z M60,35.4c0,4-0.8,8-2.3,11.7  c-1.2,2.8-2.8,5.3-4.7,7.6l-3.3-3.3c3.6-4.4,5.7-9.9,5.7-16c0-3.3-0.6-6.5-1.8-9.3l3.3-2.1l0.7-0.4c0,0.1,0.1,0.1,0.1,0.2  C59.2,27.4,60,31.3,60,35.4L60,35.4z"></path>
</svg>
